. 
 
http://www.torrentday.com   -    Your Key To The Scene.

Now TvTeam with [No-RAR] Releases.

(((((((((((((= Enjoy No RAR releases =))))))))))))))))))))

...................................NFO:....................................




Iron Man 2 CAM XViD - IMAGiNE


Ripper ...........: IMAGiNE                                        IMDB Rating.......:7.9/10                             
Video Codec.......: XVID                                         Release Date......:02/05/10
Audio Codec.......:MP3                                           Theatre Date......:07/05/10
Audio Bitrate.....:128                                              Runtime.......:1h 52mn
Subtitles.........:NIL                                                 Language..........:ENGLISH
Resolution...... 720 x 288                                      IMDb URL..........:http://www.imdb.com/title/tt1228705/


[color=yellow]DETAILS:[/color]

Video
ID                               : 0
Format                           : MPEG-4 Visual
Format profile                   : Advanced Simple@L5
Format settings, BVOP            : Yes
Format settings, QPel            : No
Format settings, GMC             : No warppoints
Format settings, Matrix          : Default (MPEG)
Muxing mode                      : Packed bitstream
Codec ID                         : XVID
Codec ID/Hint                    : XviD
Duration                         : 1h 52mn
Bit rate                         : 1 608 Kbps
Width                            : 720 pixels
Height                           : 288 pixels
Display aspect ratio             : 2.500
Frame rate                       : 25.000 fps
Resolution                       : 24 bits
Colorimetry                      : 4:2:0
Scan type                        : Progressive
Bits/(Pixel*Frame)               : 0.310
Stream size                      : 1.26 GiB (100%)
Writing library                  : XviD 1.2.1 (UTC 2008-12-04)


Audio
Format                           : MPEG Audio
Format version                   : Version 1
Format profile                   : Layer 3
Mode                             : Joint stereo
Format_Settings_ModeExtension    : MS Stereo
Duration                         : 1h 52mn
Bit rate mode                    : Constant
Bit rate                         : 128 Kbps
Channel(s)                       : 2 channels
Sampling rate                    : 48.0 KHz
Stream size                      : 103 MiB (100%) 



[color=yellow]NOTES:[/color]

IMAGiNE bringing you another release.....Iron Man 2

Sources used....russian TS and the audio off the no grp DVDR.....many thanks to both.
Audio wise for cam is half decent ....better then alot of cam audios out there so ;-)
The video needed some TLC,too colourful,rgb colours off,dark etc.....but we fixed what we could.
As for the audio we ran it through a few filters nothing major but tried to give it a bit more life ....
Now regarding some sweet direct audio.....if you can it shall be here for next weekend,your call  
if you can wait ;-)

Enjoy